<svg width="33" height="32" viewBox="0 0 33 32" fill="none" xmlns="http://www.w3.org/2000/svg">
<path d="M27.8819 3.5H4.56247C4.00167 3.5 3.54858 3.94687 3.54858 4.5V27.5C3.54858 28.0531 4.00167 28.5 4.56247 28.5H27.8819C28.4427 28.5 28.8958 28.0531 28.8958 27.5V4.5C28.8958 3.94687 28.4427 3.5 27.8819 3.5ZM24.9543 10.7969H22.9297C21.3423 10.7969 21.035 11.5406 21.035 12.6344V15.0437H24.8244L24.3301 18.8156H21.035V28.5H17.084V18.8188H13.7794V15.0437H17.084V12.2625C17.084 9.03437 19.0833 7.275 22.0045 7.275C23.405 7.275 24.6058 7.37813 24.9575 7.425V10.7969H24.9543Z" fill="#232735"/>
</svg>
