<svg width="33" height="32" viewBox="0 0 33 32" fill="none" xmlns="http://www.w3.org/2000/svg">
<path d="M16.4966 11.6648C14.2014 11.6648 12.3283 13.6129 12.3283 16C12.3283 18.3871 14.2014 20.3352 16.4966 20.3352C18.7919 20.3352 20.665 18.3871 20.665 16C20.665 13.6129 18.7919 11.6648 16.4966 11.6648ZM28.9986 16C28.9986 14.2048 29.0142 12.4258 28.9173 10.6339C28.8204 8.55247 28.3638 6.70522 26.9004 5.18319C25.4338 3.65791 23.6607 3.18634 21.6594 3.08552C19.9333 2.98471 18.2228 3.00097 16.4998 3.00097C14.7736 3.00097 13.0631 2.98471 11.3401 3.08552C9.33881 3.18634 7.56265 3.66116 6.09918 5.18319C4.6326 6.70847 4.17917 8.55247 4.08223 10.6339C3.98529 12.4291 4.00093 14.208 4.00093 16C4.00093 17.792 3.98529 19.5742 4.08223 21.3661C4.17917 23.4475 4.63572 25.2948 6.09918 26.8168C7.56577 28.3421 9.33881 28.8137 11.3401 28.9145C13.0663 29.0153 14.7768 28.999 16.4998 28.999C18.2259 28.999 19.9364 29.0153 21.6594 28.9145C23.6607 28.8137 25.4369 28.3388 26.9004 26.8168C28.3669 25.2915 28.8204 23.4475 28.9173 21.3661C29.0174 19.5742 28.9986 17.7952 28.9986 16ZM16.4966 22.6703C12.9474 22.6703 10.0831 19.6912 10.0831 16C10.0831 12.3088 12.9474 9.32974 16.4966 9.32974C20.0458 9.32974 22.9102 12.3088 22.9102 16C22.9102 19.6912 20.0458 22.6703 16.4966 22.6703ZM23.1729 10.6144C22.3442 10.6144 21.675 9.91839 21.675 9.05656C21.675 8.19473 22.3442 7.49876 23.1729 7.49876C24.0016 7.49876 24.6708 8.19473 24.6708 9.05656C24.671 9.2612 24.6324 9.46389 24.5572 9.65301C24.4821 9.84212 24.3717 10.014 24.2326 10.1587C24.0935 10.3034 23.9282 10.4181 23.7464 10.4963C23.5646 10.5745 23.3697 10.6146 23.1729 10.6144Z" fill="#232735"/>
</svg>
