<svg width="33" height="32" viewBox="0 0 33 32" fill="none" xmlns="http://www.w3.org/2000/svg">
<path d="M16.2096 2.38379C8.37414 2.38067 2.02783 8.63692 2.02783 16.3588C2.02783 22.465 5.99784 27.6557 11.5267 29.5619C12.2713 29.7463 12.1572 29.2244 12.1572 28.8682V26.4463C7.85769 26.9432 7.68343 24.1369 7.39511 23.6682C6.81212 22.6869 5.43386 22.4369 5.84576 21.9682C6.82479 21.4713 7.82284 22.0932 8.97931 23.7775C9.81577 24.9994 11.4475 24.7932 12.2744 24.59C12.455 23.8557 12.8416 23.1994 13.3739 22.69C8.91911 21.9025 7.06242 19.2213 7.06242 16.0338C7.06242 14.4869 7.57887 13.065 8.59276 11.9182C7.94641 10.0275 8.65296 8.40879 8.74801 8.16817C10.5889 8.00567 12.5026 9.46817 12.6515 9.58379C13.6971 9.30567 14.8915 9.15879 16.2286 9.15879C17.572 9.15879 18.7697 9.31192 19.8247 9.59317C20.1828 9.32442 21.9571 8.06817 23.668 8.22129C23.7599 8.46192 24.4506 10.0432 23.8423 11.9088C24.8688 13.0588 25.3916 14.4932 25.3916 16.0432C25.3916 19.2369 23.5223 21.9213 19.0548 22.6963C19.4375 23.0674 19.7413 23.5101 19.9486 23.9983C20.1558 24.4866 20.2624 25.0107 20.262 25.54V29.0557C20.2873 29.3369 20.262 29.615 20.7372 29.615C26.3485 27.7494 30.3882 22.5213 30.3882 16.3619C30.3882 8.63692 24.0387 2.38379 16.2096 2.38379Z" fill="#232735"/>
</svg>
