<svg width="24" height="24" viewBox="0 0 24 24" fill="none" xmlns="http://www.w3.org/2000/svg">
<path d="M7.00001 18C5.90001 18 5.01001 18.9 5.01001 20C5.01001 21.1 5.90001 22 7.00001 22C8.10001 22 9.00001 21.1 9.00001 20C9.00001 18.9 8.10001 18 7.00001 18Z" fill="black"/>
<path d="M17 18C15.9 18 15.01 18.9 15.01 20C15.01 21.1 15.9 22 17 22C18.1 22 19 21.1 19 20C19 18.9 18.1 18 17 18Z" fill="black"/>
<path d="M15.55 13C16.3 13 16.96 12.59 17.3 11.97L20.88 5.48C21.25 4.82 20.77 4 20.01 4H5.21L4.27 2H1V4H3L6.6 11.59L5.25 14.03C4.52 15.37 5.48 17 7 17H19V15H7L8.1 13H15.55ZM6.16 6H18.31L15.55 11H8.53L6.16 6Z" fill="black"/>
</svg>
