<svg width="23" height="240" viewBox="0 0 23 240" fill="none" xmlns="http://www.w3.org/2000/svg">
<path d="M5.95312 232.758C5.73438 232.734 5.55469 232.707 5.41406 232.676C5.26562 232.637 5.14844 232.582 5.0625 232.512C4.96875 232.434 4.90234 232.336 4.86328 232.219C4.82422 232.102 4.80469 231.953 4.80469 231.773C4.80469 231.203 4.89062 230.785 5.0625 230.52C5.22656 230.246 5.49219 230.109 5.85938 230.109C5.92969 230.109 6.08594 230.125 6.32812 230.156C6.5625 230.18 6.85547 230.215 7.20703 230.262C7.55078 230.309 7.93359 230.363 8.35547 230.426C8.76953 230.48 9.19141 230.535 9.62109 230.59C10.6211 230.73 11.7422 230.891 12.9844 231.07C13.7188 231.18 14.2461 231.398 14.5664 231.727C14.8867 232.047 15.0469 232.523 15.0469 233.156C15.0469 233.633 14.9258 234.125 14.6836 234.633C14.4414 235.141 14.1133 235.633 13.6992 236.109C13.2852 236.586 12.8047 237.039 12.2578 237.469C11.7031 237.891 11.1172 238.262 10.5 238.582C9.875 238.902 9.23828 239.156 8.58984 239.344C7.94141 239.523 7.30859 239.613 6.69141 239.613C5.99609 239.613 5.47656 239.516 5.13281 239.32C4.78125 239.117 4.60547 238.77 4.60547 238.277C4.60547 237.934 4.62891 237.648 4.67578 237.422C4.71484 237.195 4.78906 237.016 4.89844 236.883C5 236.742 5.13672 236.645 5.30859 236.59C5.48047 236.527 5.69531 236.496 5.95312 236.496C6.125 236.496 6.29688 236.504 6.46875 236.52C6.64062 236.535 6.8125 236.543 6.98438 236.543C7.38281 236.543 7.80078 236.504 8.23828 236.426C8.66797 236.34 9.08984 236.227 9.50391 236.086C9.91797 235.945 10.3125 235.781 10.6875 235.594C11.0547 235.406 11.3789 235.207 11.6602 234.996C11.9414 234.785 12.1641 234.574 12.3281 234.363C12.4922 234.145 12.5742 233.934 12.5742 233.73C12.5742 233.59 12.5273 233.484 12.4336 233.414C12.3398 233.336 12.1797 233.285 11.9531 233.262L5.95312 232.758ZM12.4336 218.461C12.2383 218.234 12.1406 218.012 12.1406 217.793C12.1406 217.668 12.1719 217.555 12.2344 217.453C12.2969 217.352 12.3945 217.238 12.5273 217.113C12.707 216.996 12.8555 216.914 12.9727 216.867C13.082 216.812 13.1914 216.785 13.3008 216.785C13.5352 216.785 13.7578 216.902 13.9688 217.137C14.2812 217.512 14.5625 217.918 14.8125 218.355C15.0547 218.793 15.2617 219.25 15.4336 219.727C15.6055 220.203 15.7344 220.695 15.8203 221.203C15.9141 221.711 15.9609 222.215 15.9609 222.715C15.9609 223.348 15.8789 223.941 15.7148 224.496C15.5586 225.051 15.332 225.547 15.0352 225.984C14.7383 226.414 14.3828 226.777 13.9688 227.074C13.5469 227.371 13.0742 227.582 12.5508 227.707C12.332 227.777 12.1914 227.844 12.1289 227.906C12.0586 227.961 12.0234 228.055 12.0234 228.188C12.0234 228.477 11.9531 228.699 11.8125 228.855C11.6719 229.012 11.4688 229.09 11.2031 229.09C11.0938 229.09 11.0234 229.082 10.9922 229.066L10.7578 229.043C10.4766 229.004 10.2734 228.93 10.1484 228.82C10.0234 228.703 9.96094 228.523 9.96094 228.281V228.105C9.96094 227.777 9.80859 227.547 9.50391 227.414C8.96484 227.172 8.47266 226.863 8.02734 226.488C7.58203 226.113 7.20312 225.691 6.89062 225.223C6.57031 224.754 6.32422 224.254 6.15234 223.723C5.97266 223.184 5.88281 222.637 5.88281 222.082C5.88281 221.504 5.96875 220.965 6.14062 220.465C6.30469 219.957 6.53516 219.516 6.83203 219.141C7.12891 218.766 7.47656 218.473 7.875 218.262C8.27344 218.043 8.70312 217.934 9.16406 217.934C9.48438 217.934 9.77734 217.996 10.043 218.121C10.3086 218.246 10.543 218.426 10.7461 218.66C10.9414 218.895 11.1016 219.18 11.2266 219.516C11.3516 219.844 11.4336 220.219 11.4727 220.641L11.8828 224.707C11.8828 224.863 11.9219 224.992 12 225.094C12.0781 225.188 12.1836 225.234 12.3164 225.234C12.5195 225.234 12.7148 225.16 12.9023 225.012C13.0898 224.855 13.2578 224.652 13.4062 224.402C13.5469 224.145 13.6602 223.852 13.7461 223.523C13.832 223.188 13.875 222.844 13.875 222.492C13.875 222.156 13.8438 221.812 13.7812 221.461C13.7109 221.102 13.6133 220.75 13.4883 220.406C13.3633 220.055 13.2148 219.715 13.043 219.387C12.8633 219.059 12.6602 218.75 12.4336 218.461ZM9.41016 221.074C9.38672 220.957 9.33203 220.855 9.24609 220.77C9.15234 220.684 9.03906 220.641 8.90625 220.641C8.78906 220.641 8.67969 220.684 8.57812 220.77C8.47656 220.855 8.38672 220.973 8.30859 221.121C8.22266 221.27 8.15625 221.441 8.10938 221.637C8.0625 221.832 8.03906 222.039 8.03906 222.258C8.03906 222.578 8.08594 222.906 8.17969 223.242C8.27344 223.578 8.39844 223.883 8.55469 224.156C8.70312 224.43 8.87109 224.652 9.05859 224.824C9.23828 224.996 9.41797 225.082 9.59766 225.082C9.77734 225.082 9.86719 224.973 9.86719 224.754C9.86719 224.621 9.85156 224.406 9.82031 224.109C9.78906 223.812 9.75391 223.484 9.71484 223.125C9.66797 222.766 9.61719 222.402 9.5625 222.035C9.50781 221.668 9.45703 221.348 9.41016 221.074ZM6.23438 209.684C6.23438 209.973 6.3125 210.227 6.46875 210.445C6.61719 210.664 6.82813 210.852 7.10156 211.008C7.36719 211.164 7.68359 211.293 8.05078 211.395C8.41016 211.496 8.80469 211.578 9.23438 211.641C9.66406 211.703 10.1133 211.746 10.582 211.77C11.0508 211.793 11.5234 211.805 12 211.805C12.625 211.805 13.2422 211.781 13.8516 211.734C14.4531 211.68 15.0117 211.652 15.5273 211.652C15.8633 211.652 16.125 211.777 16.3125 212.027C16.5078 212.277 16.6055 212.633 16.6055 213.094C16.6055 213.18 16.5977 213.277 16.582 213.387C16.5664 213.496 16.5352 213.602 16.4883 213.703C16.4414 213.797 16.375 213.883 16.2891 213.961C16.2109 214.031 16.1016 214.07 15.9609 214.078C15.2734 214.148 14.5703 214.25 13.8516 214.383C13.1328 214.516 12.418 214.684 11.707 214.887C10.9883 215.082 10.2773 215.32 9.57422 215.602C8.87109 215.875 8.18359 216.191 7.51172 216.551C7.39453 216.613 7.28516 216.668 7.18359 216.715C7.08203 216.754 6.98438 216.773 6.89063 216.773C6.77344 216.773 6.64844 216.723 6.51563 216.621C6.375 216.512 6.24609 216.379 6.12891 216.223C6.01172 216.059 5.91797 215.883 5.84766 215.695C5.76953 215.5 5.73047 215.312 5.73047 215.133C5.73047 214.836 5.9375 214.574 6.35156 214.348C6.75781 214.121 7.41016 213.91 8.30859 213.715C8.46484 213.676 8.57422 213.645 8.63672 213.621C8.69922 213.598 8.73047 213.566 8.73047 213.527C8.73047 213.441 8.59766 213.387 8.33203 213.363C7.58984 213.27 6.95313 213.109 6.42188 212.883C5.88281 212.656 5.44141 212.375 5.09766 212.039C4.74609 211.695 4.48828 211.305 4.32422 210.867C4.16016 210.422 4.07813 209.934 4.07813 209.402C4.07813 209.098 4.10547 208.789 4.16016 208.477C4.21484 208.164 4.29688 207.883 4.40625 207.633C4.51563 207.383 4.64844 207.18 4.80469 207.023C4.96094 206.867 5.13672 206.789 5.33203 206.789C5.47266 206.789 5.64063 206.82 5.83594 206.883C6.02344 206.938 6.20703 207.012 6.38672 207.105C6.55859 207.199 6.70703 207.309 6.83203 207.434C6.94922 207.551 7.00781 207.672 7.00781 207.797C7.00781 207.938 6.96875 208.074 6.89063 208.207C6.80469 208.34 6.71484 208.484 6.62109 208.641C6.52734 208.789 6.44141 208.949 6.36328 209.121C6.27734 209.285 6.23438 209.473 6.23438 209.684ZM15.3164 202.641C15.3164 203.109 15.2031 203.578 14.9766 204.047C14.7422 204.516 14.4258 204.965 14.0273 205.395C13.6289 205.824 13.1602 206.223 12.6211 206.59C12.0742 206.957 11.4883 207.277 10.8633 207.551C10.2305 207.824 9.57031 208.039 8.88281 208.195C8.19531 208.352 7.50781 208.43 6.82031 208.43C6.28906 208.43 5.91016 208.32 5.68359 208.102C5.44922 207.883 5.33203 207.527 5.33203 207.035C5.33203 206.418 5.58594 206.074 6.09375 206.004C7.17188 205.863 8.14453 205.668 9.01172 205.418C9.87891 205.168 10.6172 204.875 11.2266 204.539C11.8359 204.195 12.3047 203.816 12.6328 203.402C12.9609 202.98 13.125 202.535 13.125 202.066C13.125 201.73 13.043 201.414 12.8789 201.117C12.707 200.82 12.4688 200.562 12.1641 200.344C12.0469 200.266 11.9336 200.215 11.8242 200.191C11.7148 200.16 11.5898 200.137 11.4492 200.121C10.8945 200.082 10.3516 200.039 9.82031 199.992C9.28125 199.938 8.74219 199.887 8.20313 199.84C7.96875 199.824 7.77734 199.793 7.62891 199.746C7.48047 199.699 7.36328 199.629 7.27734 199.535C7.19141 199.441 7.13281 199.32 7.10156 199.172C7.07031 199.016 7.05469 198.82 7.05469 198.586C7.05469 198.32 7.09375 198.094 7.17188 197.906C7.24219 197.719 7.36328 197.566 7.53516 197.449C7.69922 197.332 7.91797 197.25 8.19141 197.203C8.45703 197.148 8.78906 197.121 9.1875 197.121C9.53125 197.121 9.83203 197.148 10.0898 197.203C10.3398 197.25 10.5781 197.309 10.8047 197.379C11.0234 197.441 11.2422 197.504 11.4609 197.566C11.6719 197.621 11.9063 197.656 12.1641 197.672C12.8125 197.711 13.375 197.746 13.8516 197.777C14.3203 197.809 14.7227 197.836 15.0586 197.859C15.3945 197.875 15.6836 197.891 15.9258 197.906C16.168 197.914 16.3828 197.922 16.5703 197.93C16.7656 197.938 16.9492 197.941 17.1211 197.941C17.293 197.941 17.4805 197.941 17.6836 197.941C18.0508 197.941 18.4492 197.926 18.8789 197.895C19.3164 197.863 19.7344 197.832 20.1328 197.801C20.5313 197.762 20.8828 197.727 21.1875 197.695C21.4922 197.664 21.7031 197.648 21.8203 197.648C21.9688 197.648 22.1094 197.695 22.2422 197.789C22.375 197.883 22.4922 198.008 22.5938 198.164C22.6953 198.32 22.7734 198.504 22.8281 198.715C22.8906 198.926 22.9219 199.148 22.9219 199.383C22.9219 199.586 22.8516 199.75 22.7109 199.875C22.5781 199.992 22.3984 200.059 22.1719 200.074C21.875 200.098 21.5117 200.117 21.082 200.133C20.6602 200.148 20.207 200.164 19.7227 200.18C19.2461 200.195 18.7578 200.207 18.2578 200.215C17.7656 200.215 17.3047 200.219 16.875 200.227C16.4531 200.234 16.082 200.238 15.7617 200.238C15.4414 200.238 15.2109 200.238 15.0703 200.238C14.9297 200.238 14.832 200.254 14.7773 200.285C14.7148 200.316 14.6836 200.375 14.6836 200.461C14.6836 200.508 14.6992 200.57 14.7305 200.648C14.7539 200.727 14.7969 200.816 14.8594 200.918C15.0234 201.191 15.1406 201.469 15.2109 201.75C15.2812 202.031 15.3164 202.328 15.3164 202.641ZM6.43359 187.875C6.44922 187.844 6.45703 187.797 6.45703 187.734C6.45703 187.562 6.34375 187.477 6.11719 187.477H2.47266C2.01172 187.477 1.68359 187.375 1.48828 187.172C1.29297 186.961 1.19531 186.613 1.19531 186.129C1.19531 185.637 1.29688 185.289 1.5 185.086C1.70313 184.883 2.05078 184.781 2.54297 184.781C2.73047 184.781 3.00781 184.793 3.375 184.816C3.73438 184.84 4.14453 184.867 4.60547 184.898C5.06641 184.922 5.5625 184.945 6.09375 184.969C6.61719 184.992 7.13672 185.004 7.65234 185.004C8.44922 185.004 9.13672 184.949 9.71484 184.84C10.293 184.73 10.7734 184.574 11.1563 184.371C11.5313 184.168 11.8125 183.926 12 183.645C12.1797 183.363 12.2695 183.047 12.2695 182.695C12.2695 182.5 12.2461 182.324 12.1992 182.168C12.1445 182.004 12.1172 181.812 12.1172 181.594C12.1172 181.438 12.1992 181.309 12.3633 181.207C12.5195 181.098 12.7109 181.043 12.9375 181.043C13.1406 181.043 13.332 181.105 13.5117 181.23C13.6914 181.348 13.8477 181.512 13.9805 181.723C14.1133 181.926 14.2188 182.164 14.2969 182.438C14.3672 182.711 14.4023 182.996 14.4023 183.293C14.4023 183.934 14.207 184.52 13.8164 185.051C13.418 185.582 12.8125 185.98 12 186.246C11.875 186.27 11.8125 186.309 11.8125 186.363C11.8125 186.426 11.875 186.477 12 186.516C12.5703 186.727 13.0859 187.004 13.5469 187.348C14 187.684 14.3906 188.078 14.7188 188.531C15.0391 188.977 15.2852 189.469 15.457 190.008C15.6289 190.539 15.7148 191.102 15.7148 191.695C15.7148 192.32 15.6094 192.895 15.3984 193.418C15.1953 193.934 14.9102 194.379 14.543 194.754C14.168 195.129 13.7305 195.422 13.2305 195.633C12.7227 195.844 12.1758 195.949 11.5898 195.949C10.8398 195.949 10.1328 195.793 9.46875 195.48C8.80469 195.168 8.22656 194.746 7.73438 194.215C7.23438 193.676 6.83984 193.051 6.55078 192.34C6.26172 191.629 6.11719 190.871 6.11719 190.066C6.11719 189.738 6.14453 189.391 6.19922 189.023C6.24609 188.656 6.32422 188.273 6.43359 187.875ZM13.6055 191.238C13.6055 190.793 13.5078 190.398 13.3125 190.055C13.1172 189.703 12.8711 189.395 12.5742 189.129C12.2695 188.855 11.9375 188.625 11.5781 188.438C11.2109 188.25 10.8555 188.098 10.5117 187.98C10.168 187.863 9.85938 187.777 9.58594 187.723C9.3125 187.668 9.11719 187.641 9 187.641C8.91406 187.641 8.83984 187.664 8.77734 187.711C8.70703 187.758 8.65234 187.828 8.61328 187.922C8.55859 188.133 8.51172 188.352 8.47266 188.578C8.42578 188.805 8.38672 189.027 8.35547 189.246C8.32422 189.465 8.30078 189.676 8.28516 189.879C8.26953 190.074 8.26172 190.254 8.26172 190.418C8.26172 190.887 8.33203 191.312 8.47266 191.695C8.61328 192.078 8.8125 192.406 9.07031 192.68C9.32813 192.945 9.63672 193.152 9.99609 193.301C10.3477 193.449 10.7344 193.523 11.1563 193.523C11.5313 193.523 11.8711 193.469 12.1758 193.359C12.4727 193.242 12.7266 193.086 12.9375 192.891C13.1484 192.688 13.3125 192.445 13.4297 192.164C13.5469 191.883 13.6055 191.574 13.6055 191.238ZM12.4336 171.68C12.2383 171.453 12.1406 171.23 12.1406 171.012C12.1406 170.887 12.1719 170.773 12.2344 170.672C12.2969 170.57 12.3945 170.457 12.5273 170.332C12.707 170.215 12.8555 170.133 12.9727 170.086C13.082 170.031 13.1914 170.004 13.3008 170.004C13.5352 170.004 13.7578 170.121 13.9688 170.355C14.2813 170.73 14.5625 171.137 14.8125 171.574C15.0547 172.012 15.2617 172.469 15.4336 172.945C15.6055 173.422 15.7344 173.914 15.8203 174.422C15.9141 174.93 15.9609 175.434 15.9609 175.934C15.9609 176.566 15.8789 177.16 15.7148 177.715C15.5586 178.27 15.332 178.766 15.0352 179.203C14.7383 179.633 14.3828 179.996 13.9688 180.293C13.5469 180.59 13.0742 180.801 12.5508 180.926C12.332 180.996 12.1914 181.062 12.1289 181.125C12.0586 181.18 12.0234 181.273 12.0234 181.406C12.0234 181.695 11.9531 181.918 11.8125 182.074C11.6719 182.23 11.4688 182.309 11.2031 182.309C11.0938 182.309 11.0234 182.301 10.9922 182.285L10.7578 182.262C10.4766 182.223 10.2734 182.148 10.1484 182.039C10.0234 181.922 9.96094 181.742 9.96094 181.5V181.324C9.96094 180.996 9.80859 180.766 9.50391 180.633C8.96484 180.391 8.47266 180.082 8.02734 179.707C7.58203 179.332 7.20313 178.91 6.89063 178.441C6.57031 177.973 6.32422 177.473 6.15234 176.941C5.97266 176.402 5.88281 175.855 5.88281 175.301C5.88281 174.723 5.96875 174.184 6.14063 173.684C6.30469 173.176 6.53516 172.734 6.83203 172.359C7.12891 171.984 7.47656 171.691 7.875 171.48C8.27344 171.262 8.70313 171.152 9.16406 171.152C9.48438 171.152 9.77734 171.215 10.043 171.34C10.3086 171.465 10.543 171.645 10.7461 171.879C10.9414 172.113 11.1016 172.398 11.2266 172.734C11.3516 173.062 11.4336 173.438 11.4727 173.859L11.8828 177.926C11.8828 178.082 11.9219 178.211 12 178.312C12.0781 178.406 12.1836 178.453 12.3164 178.453C12.5195 178.453 12.7148 178.379 12.9023 178.23C13.0898 178.074 13.2578 177.871 13.4063 177.621C13.5469 177.363 13.6602 177.07 13.7461 176.742C13.832 176.406 13.875 176.062 13.875 175.711C13.875 175.375 13.8438 175.031 13.7813 174.68C13.7109 174.32 13.6133 173.969 13.4883 173.625C13.3633 173.273 13.2148 172.934 13.043 172.605C12.8633 172.277 12.6602 171.969 12.4336 171.68ZM9.41016 174.293C9.38672 174.176 9.33203 174.074 9.24609 173.988C9.15234 173.902 9.03906 173.859 8.90625 173.859C8.78906 173.859 8.67969 173.902 8.57813 173.988C8.47656 174.074 8.38672 174.191 8.30859 174.34C8.22266 174.488 8.15625 174.66 8.10938 174.855C8.0625 175.051 8.03906 175.258 8.03906 175.477C8.03906 175.797 8.08594 176.125 8.17969 176.461C8.27344 176.797 8.39844 177.102 8.55469 177.375C8.70313 177.648 8.87109 177.871 9.05859 178.043C9.23828 178.215 9.41797 178.301 9.59766 178.301C9.77734 178.301 9.86719 178.191 9.86719 177.973C9.86719 177.84 9.85156 177.625 9.82031 177.328C9.78906 177.031 9.75391 176.703 9.71484 176.344C9.66797 175.984 9.61719 175.621 9.5625 175.254C9.50781 174.887 9.45703 174.566 9.41016 174.293ZM1.65234 169.887C1.24609 169.887 0.957031 169.77 0.785156 169.535C0.613281 169.301 0.527344 168.914 0.527344 168.375C0.527344 168.188 0.546875 168.023 0.585938 167.883C0.625 167.742 0.691406 167.625 0.785156 167.531C0.871094 167.438 0.992188 167.363 1.14844 167.309C1.29688 167.246 1.48828 167.195 1.72266 167.156C2.41797 167.055 3.14844 166.953 3.91406 166.852C4.67188 166.742 5.42969 166.641 6.1875 166.547C6.9375 166.445 7.67188 166.352 8.39063 166.266C9.10156 166.18 9.76563 166.105 10.3828 166.043C10.9922 165.973 11.5352 165.922 12.0117 165.891C12.4805 165.852 12.8516 165.832 13.125 165.832C13.4063 165.832 13.6445 165.859 13.8398 165.914C14.0352 165.961 14.1914 166.047 14.3086 166.172C14.4258 166.289 14.5117 166.445 14.5664 166.641C14.6133 166.828 14.6367 167.062 14.6367 167.344C14.6367 167.617 14.5664 167.836 14.4258 168C14.2852 168.156 14.0703 168.234 13.7813 168.234C13.4844 168.234 13.0898 168.258 12.5977 168.305C12.0977 168.352 11.543 168.414 10.9336 168.492C10.3242 168.57 9.67578 168.66 8.98828 168.762C8.30078 168.855 7.62109 168.957 6.94922 169.066C6.27734 169.168 5.63281 169.27 5.01563 169.371C4.39063 169.465 3.83984 169.551 3.36328 169.629C2.87891 169.707 2.48438 169.77 2.17969 169.816C1.86719 169.863 1.69141 169.887 1.65234 169.887ZM3.04688 162.199C3.04688 162.426 3.01563 162.641 2.95313 162.844C2.88281 163.039 2.78906 163.211 2.67188 163.359C2.54688 163.5 2.40234 163.613 2.23828 163.699C2.07422 163.785 1.89453 163.828 1.69922 163.828C1.37109 163.828 1.10547 163.699 0.902344 163.441C0.699219 163.176 0.597656 162.824 0.597656 162.387C0.597656 162.184 0.636719 161.988 0.714844 161.801C0.785156 161.613 0.882813 161.449 1.00781 161.309C1.13281 161.16 1.28125 161.043 1.45313 160.957C1.61719 160.871 1.78906 160.828 1.96875 160.828C2.30469 160.828 2.57031 160.953 2.76563 161.203C2.95313 161.445 3.04688 161.777 3.04688 162.199ZM6.62109 163.805C6.34766 163.805 6.125 163.688 5.95313 163.453C5.77344 163.211 5.68359 162.895 5.68359 162.504C5.68359 161.801 5.92578 161.426 6.41016 161.379C6.74609 161.348 7.125 161.316 7.54688 161.285C7.96875 161.246 8.41797 161.211 8.89453 161.18C9.36328 161.141 9.85156 161.109 10.3594 161.086C10.8594 161.055 11.3555 161.027 11.8477 161.004C12.332 160.98 12.8008 160.961 13.2539 160.945C13.707 160.93 14.1211 160.922 14.4961 160.922C14.8867 160.922 15.1797 161.062 15.375 161.344C15.5703 161.617 15.668 162.02 15.668 162.551C15.668 162.793 15.6094 162.984 15.4922 163.125C15.3828 163.258 15.2188 163.324 15 163.324C13.9219 163.324 12.9141 163.352 11.9766 163.406C11.0313 163.453 10.1914 163.508 9.45703 163.57C8.72266 163.625 8.11328 163.68 7.62891 163.734C7.13672 163.781 6.80078 163.805 6.62109 163.805ZM5.95313 152.484C5.73438 152.461 5.55469 152.434 5.41406 152.402C5.26563 152.363 5.14844 152.309 5.0625 152.238C4.96875 152.16 4.90234 152.062 4.86328 151.945C4.82422 151.828 4.80469 151.68 4.80469 151.5C4.80469 150.93 4.89063 150.512 5.0625 150.246C5.22656 149.973 5.49219 149.836 5.85938 149.836C5.92969 149.836 6.08594 149.852 6.32813 149.883C6.5625 149.906 6.85547 149.941 7.20703 149.988C7.55078 150.035 7.93359 150.09 8.35547 150.152C8.76953 150.207 9.19141 150.262 9.62109 150.316C10.6211 150.457 11.7422 150.617 12.9844 150.797C13.7188 150.906 14.2461 151.125 14.5664 151.453C14.8867 151.773 15.0469 152.25 15.0469 152.883C15.0469 153.359 14.9258 153.852 14.6836 154.359C14.4414 154.867 14.1133 155.359 13.6992 155.836C13.2852 156.312 12.8047 156.766 12.2578 157.195C11.7031 157.617 11.1172 157.988 10.5 158.309C9.875 158.629 9.23828 158.883 8.58984 159.07C7.94141 159.25 7.30859 159.34 6.69141 159.34C5.99609 159.34 5.47656 159.242 5.13281 159.047C4.78125 158.844 4.60547 158.496 4.60547 158.004C4.60547 157.66 4.62891 157.375 4.67578 157.148C4.71484 156.922 4.78906 156.742 4.89844 156.609C5 156.469 5.13672 156.371 5.30859 156.316C5.48047 156.254 5.69531 156.223 5.95313 156.223C6.125 156.223 6.29688 156.23 6.46875 156.246C6.64063 156.262 6.8125 156.27 6.98438 156.27C7.38281 156.27 7.80078 156.23 8.23828 156.152C8.66797 156.066 9.08984 155.953 9.50391 155.812C9.91797 155.672 10.3125 155.508 10.6875 155.32C11.0547 155.133 11.3789 154.934 11.6602 154.723C11.9414 154.512 12.1641 154.301 12.3281 154.09C12.4922 153.871 12.5742 153.66 12.5742 153.457C12.5742 153.316 12.5273 153.211 12.4336 153.141C12.3398 153.062 12.1797 153.012 11.9531 152.988L5.95313 152.484ZM12.4336 138.188C12.2383 137.961 12.1406 137.738 12.1406 137.52C12.1406 137.395 12.1719 137.281 12.2344 137.18C12.2969 137.078 12.3945 136.965 12.5273 136.84C12.707 136.723 12.8555 136.641 12.9727 136.594C13.082 136.539 13.1914 136.512 13.3008 136.512C13.5352 136.512 13.7578 136.629 13.9688 136.863C14.2813 137.238 14.5625 137.645 14.8125 138.082C15.0547 138.52 15.2617 138.977 15.4336 139.453C15.6055 139.93 15.7344 140.422 15.8203 140.93C15.9141 141.438 15.9609 141.941 15.9609 142.441C15.9609 143.074 15.8789 143.668 15.7148 144.223C15.5586 144.777 15.332 145.273 15.0352 145.711C14.7383 146.141 14.3828 146.504 13.9688 146.801C13.5469 147.098 13.0742 147.309 12.5508 147.434C12.332 147.504 12.1914 147.57 12.1289 147.633C12.0586 147.688 12.0234 147.781 12.0234 147.914C12.0234 148.203 11.9531 148.426 11.8125 148.582C11.6719 148.738 11.4688 148.816 11.2031 148.816C11.0938 148.816 11.0234 148.809 10.9922 148.793L10.7578 148.77C10.4766 148.73 10.2734 148.656 10.1484 148.547C10.0234 148.43 9.96094 148.25 9.96094 148.008V147.832C9.96094 147.504 9.80859 147.273 9.50391 147.141C8.96484 146.898 8.47266 146.59 8.02734 146.215C7.58203 145.84 7.20313 145.418 6.89063 144.949C6.57031 144.48 6.32422 143.98 6.15234 143.449C5.97266 142.91 5.88281 142.363 5.88281 141.809C5.88281 141.23 5.96875 140.691 6.14063 140.191C6.30469 139.684 6.53516 139.242 6.83203 138.867C7.12891 138.492 7.47656 138.199 7.875 137.988C8.27344 137.77 8.70313 137.66 9.16406 137.66C9.48438 137.66 9.77734 137.723 10.043 137.848C10.3086 137.973 10.543 138.152 10.7461 138.387C10.9414 138.621 11.1016 138.906 11.2266 139.242C11.3516 139.57 11.4336 139.945 11.4727 140.367L11.8828 144.434C11.8828 144.59 11.9219 144.719 12 144.82C12.0781 144.914 12.1836 144.961 12.3164 144.961C12.5195 144.961 12.7148 144.887 12.9023 144.738C13.0898 144.582 13.2578 144.379 13.4063 144.129C13.5469 143.871 13.6602 143.578 13.7461 143.25C13.832 142.914 13.875 142.57 13.875 142.219C13.875 141.883 13.8438 141.539 13.7813 141.188C13.7109 140.828 13.6133 140.477 13.4883 140.133C13.3633 139.781 13.2148 139.441 13.043 139.113C12.8633 138.785 12.6602 138.477 12.4336 138.188ZM9.41016 140.801C9.38672 140.684 9.33203 140.582 9.24609 140.496C9.15234 140.41 9.03906 140.367 8.90625 140.367C8.78906 140.367 8.67969 140.41 8.57813 140.496C8.47656 140.582 8.38672 140.699 8.30859 140.848C8.22266 140.996 8.15625 141.168 8.10938 141.363C8.0625 141.559 8.03906 141.766 8.03906 141.984C8.03906 142.305 8.08594 142.633 8.17969 142.969C8.27344 143.305 8.39844 143.609 8.55469 143.883C8.70313 144.156 8.87109 144.379 9.05859 144.551C9.23828 144.723 9.41797 144.809 9.59766 144.809C9.77734 144.809 9.86719 144.699 9.86719 144.48C9.86719 144.348 9.85156 144.133 9.82031 143.836C9.78906 143.539 9.75391 143.211 9.71484 142.852C9.66797 142.492 9.61719 142.129 9.5625 141.762C9.50781 141.395 9.45703 141.074 9.41016 140.801ZM6.23438 129.41C6.23438 129.699 6.3125 129.953 6.46875 130.172C6.61719 130.391 6.82813 130.578 7.10156 130.734C7.36719 130.891 7.68359 131.02 8.05078 131.121C8.41016 131.223 8.80469 131.305 9.23438 131.367C9.66406 131.43 10.1133 131.473 10.582 131.496C11.0508 131.52 11.5234 131.531 12 131.531C12.625 131.531 13.2422 131.508 13.8516 131.461C14.4531 131.406 15.0117 131.379 15.5273 131.379C15.8633 131.379 16.125 131.504 16.3125 131.754C16.5078 132.004 16.6055 132.359 16.6055 132.82C16.6055 132.906 16.5977 133.004 16.582 133.113C16.5664 133.223 16.5352 133.328 16.4883 133.43C16.4414 133.523 16.375 133.609 16.2891 133.688C16.2109 133.758 16.1016 133.797 15.9609 133.805C15.2734 133.875 14.5703 133.977 13.8516 134.109C13.1328 134.242 12.418 134.41 11.707 134.613C10.9883 134.809 10.2773 135.047 9.57422 135.328C8.87109 135.602 8.18359 135.918 7.51172 136.277C7.39453 136.34 7.28516 136.395 7.18359 136.441C7.08203 136.48 6.98438 136.5 6.89063 136.5C6.77344 136.5 6.64844 136.449 6.51563 136.348C6.375 136.238 6.24609 136.105 6.12891 135.949C6.01172 135.785 5.91797 135.609 5.84766 135.422C5.76953 135.227 5.73047 135.039 5.73047 134.859C5.73047 134.562 5.9375 134.301 6.35156 134.074C6.75781 133.848 7.41016 133.637 8.30859 133.441C8.46484 133.402 8.57422 133.371 8.63672 133.348C8.69922 133.324 8.73047 133.293 8.73047 133.254C8.73047 133.168 8.59766 133.113 8.33203 133.09C7.58984 132.996 6.95313 132.836 6.42188 132.609C5.88281 132.383 5.44141 132.102 5.09766 131.766C4.74609 131.422 4.48828 131.031 4.32422 130.594C4.16016 130.148 4.07813 129.66 4.07813 129.129C4.07813 128.824 4.10547 128.516 4.16016 128.203C4.21484 127.891 4.29688 127.609 4.40625 127.359C4.51563 127.109 4.64844 126.906 4.80469 126.75C4.96094 126.594 5.13672 126.516 5.33203 126.516C5.47266 126.516 5.64063 126.547 5.83594 126.609C6.02344 126.664 6.20703 126.738 6.38672 126.832C6.55859 126.926 6.70703 127.035 6.83203 127.16C6.94922 127.277 7.00781 127.398 7.00781 127.523C7.00781 127.664 6.96875 127.801 6.89063 127.934C6.80469 128.066 6.71484 128.211 6.62109 128.367C6.52734 128.516 6.44141 128.676 6.36328 128.848C6.27734 129.012 6.23438 129.199 6.23438 129.41ZM15.3164 122.367C15.3164 122.836 15.2031 123.305 14.9766 123.773C14.7422 124.242 14.4258 124.691 14.0273 125.121C13.6289 125.551 13.1602 125.949 12.6211 126.316C12.0742 126.684 11.4883 127.004 10.8633 127.277C10.2305 127.551 9.57031 127.766 8.88281 127.922C8.19531 128.078 7.50781 128.156 6.82031 128.156C6.28906 128.156 5.91016 128.047 5.68359 127.828C5.44922 127.609 5.33203 127.254 5.33203 126.762C5.33203 126.145 5.58594 125.801 6.09375 125.73C7.17188 125.59 8.14453 125.395 9.01172 125.145C9.87891 124.895 10.6172 124.602 11.2266 124.266C11.8359 123.922 12.3047 123.543 12.6328 123.129C12.9609 122.707 13.125 122.262 13.125 121.793C13.125 121.457 13.043 121.141 12.8789 120.844C12.707 120.547 12.4688 120.289 12.1641 120.07C12.0469 119.992 11.9336 119.941 11.8242 119.918C11.7148 119.887 11.5898 119.863 11.4492 119.848C10.8945 119.809 10.3516 119.766 9.82031 119.719C9.28125 119.664 8.74219 119.613 8.20313 119.566C7.96875 119.551 7.77734 119.52 7.62891 119.473C7.48047 119.426 7.36328 119.355 7.27734 119.262C7.19141 119.168 7.13281 119.047 7.10156 118.898C7.07031 118.742 7.05469 118.547 7.05469 118.312C7.05469 118.047 7.09375 117.82 7.17188 117.633C7.24219 117.445 7.36328 117.293 7.53516 117.176C7.69922 117.059 7.91797 116.977 8.19141 116.93C8.45703 116.875 8.78906 116.848 9.1875 116.848C9.53125 116.848 9.83203 116.875 10.0898 116.93C10.3398 116.977 10.5781 117.035 10.8047 117.105C11.0234 117.168 11.2422 117.23 11.4609 117.293C11.6719 117.348 11.9063 117.383 12.1641 117.398C12.8125 117.438 13.375 117.473 13.8516 117.504C14.3203 117.535 14.7227 117.562 15.0586 117.586C15.3945 117.602 15.6836 117.617 15.9258 117.633C16.168 117.641 16.3828 117.648 16.5703 117.656C16.7656 117.664 16.9492 117.668 17.1211 117.668C17.293 117.668 17.4805 117.668 17.6836 117.668C18.0508 117.668 18.4492 117.652 18.8789 117.621C19.3164 117.59 19.7344 117.559 20.1328 117.527C20.5313 117.488 20.8828 117.453 21.1875 117.422C21.4922 117.391 21.7031 117.375 21.8203 117.375C21.9688 117.375 22.1094 117.422 22.2422 117.516C22.375 117.609 22.4922 117.734 22.5938 117.891C22.6953 118.047 22.7734 118.23 22.8281 118.441C22.8906 118.652 22.9219 118.875 22.9219 119.109C22.9219 119.312 22.8516 119.477 22.7109 119.602C22.5781 119.719 22.3984 119.785 22.1719 119.801C21.875 119.824 21.5117 119.844 21.082 119.859C20.6602 119.875 20.207 119.891 19.7227 119.906C19.2461 119.922 18.7578 119.934 18.2578 119.941C17.7656 119.941 17.3047 119.945 16.875 119.953C16.4531 119.961 16.082 119.965 15.7617 119.965C15.4414 119.965 15.2109 119.965 15.0703 119.965C14.9297 119.965 14.832 119.98 14.7773 120.012C14.7148 120.043 14.6836 120.102 14.6836 120.188C14.6836 120.234 14.6992 120.297 14.7305 120.375C14.7539 120.453 14.7969 120.543 14.8594 120.645C15.0234 120.918 15.1406 121.195 15.2109 121.477C15.2813 121.758 15.3164 122.055 15.3164 122.367ZM6.43359 107.602C6.44922 107.57 6.45703 107.523 6.45703 107.461C6.45703 107.289 6.34375 107.203 6.11719 107.203H2.47266C2.01172 107.203 1.68359 107.102 1.48828 106.898C1.29297 106.688 1.19531 106.34 1.19531 105.855C1.19531 105.363 1.29688 105.016 1.5 104.812C1.70313 104.609 2.05078 104.508 2.54297 104.508C2.73047 104.508 3.00781 104.52 3.375 104.543C3.73438 104.566 4.14453 104.594 4.60547 104.625C5.06641 104.648 5.5625 104.672 6.09375 104.695C6.61719 104.719 7.13672 104.73 7.65234 104.73C8.44922 104.73 9.13672 104.676 9.71484 104.566C10.293 104.457 10.7734 104.301 11.1563 104.098C11.5313 103.895 11.8125 103.652 12 103.371C12.1797 103.09 12.2695 102.773 12.2695 102.422C12.2695 102.227 12.2461 102.051 12.1992 101.895C12.1445 101.73 12.1172 101.539 12.1172 101.32C12.1172 101.164 12.1992 101.035 12.3633 100.934C12.5195 100.824 12.7109 100.77 12.9375 100.77C13.1406 100.77 13.332 100.832 13.5117 100.957C13.6914 101.074 13.8477 101.238 13.9805 101.449C14.1133 101.652 14.2188 101.891 14.2969 102.164C14.3672 102.438 14.4023 102.723 14.4023 103.02C14.4023 103.66 14.207 104.246 13.8164 104.777C13.418 105.309 12.8125 105.707 12 105.973C11.875 105.996 11.8125 106.035 11.8125 106.09C11.8125 106.152 11.875 106.203 12 106.242C12.5703 106.453 13.0859 106.73 13.5469 107.074C14 107.41 14.3906 107.805 14.7188 108.258C15.0391 108.703 15.2852 109.195 15.457 109.734C15.6289 110.266 15.7148 110.828 15.7148 111.422C15.7148 112.047 15.6094 112.621 15.3984 113.145C15.1953 113.66 14.9102 114.105 14.543 114.48C14.168 114.855 13.7305 115.148 13.2305 115.359C12.7227 115.57 12.1758 115.676 11.5898 115.676C10.8398 115.676 10.1328 115.52 9.46875 115.207C8.80469 114.895 8.22656 114.473 7.73438 113.941C7.23438 113.402 6.83984 112.777 6.55078 112.066C6.26172 111.355 6.11719 110.598 6.11719 109.793C6.11719 109.465 6.14453 109.117 6.19922 108.75C6.24609 108.383 6.32422 108 6.43359 107.602ZM13.6055 110.965C13.6055 110.52 13.5078 110.125 13.3125 109.781C13.1172 109.43 12.8711 109.121 12.5742 108.855C12.2695 108.582 11.9375 108.352 11.5781 108.164C11.2109 107.977 10.8555 107.824 10.5117 107.707C10.168 107.59 9.85938 107.504 9.58594 107.449C9.3125 107.395 9.11719 107.367 9 107.367C8.91406 107.367 8.83984 107.391 8.77734 107.438C8.70703 107.484 8.65234 107.555 8.61328 107.648C8.55859 107.859 8.51172 108.078 8.47266 108.305C8.42578 108.531 8.38672 108.754 8.35547 108.973C8.32422 109.191 8.30078 109.402 8.28516 109.605C8.26953 109.801 8.26172 109.98 8.26172 110.145C8.26172 110.613 8.33203 111.039 8.47266 111.422C8.61328 111.805 8.8125 112.133 9.07031 112.406C9.32813 112.672 9.63672 112.879 9.99609 113.027C10.3477 113.176 10.7344 113.25 11.1563 113.25C11.5313 113.25 11.8711 113.195 12.1758 113.086C12.4727 112.969 12.7266 112.812 12.9375 112.617C13.1484 112.414 13.3125 112.172 13.4297 111.891C13.5469 111.609 13.6055 111.301 13.6055 110.965ZM12.4336 91.4062C12.2383 91.1797 12.1406 90.957 12.1406 90.7383C12.1406 90.6133 12.1719 90.5 12.2344 90.3984C12.2969 90.2969 12.3945 90.1836 12.5273 90.0586C12.707 89.9414 12.8555 89.8594 12.9727 89.8125C13.082 89.7578 13.1914 89.7305 13.3008 89.7305C13.5352 89.7305 13.7578 89.8477 13.9688 90.082C14.2813 90.457 14.5625 90.8633 14.8125 91.3008C15.0547 91.7383 15.2617 92.1953 15.4336 92.6719C15.6055 93.1484 15.7344 93.6406 15.8203 94.1484C15.9141 94.6562 15.9609 95.1602 15.9609 95.6602C15.9609 96.293 15.8789 96.8867 15.7148 97.4414C15.5586 97.9961 15.332 98.4922 15.0352 98.9297C14.7383 99.3594 14.3828 99.7227 13.9688 100.02C13.5469 100.316 13.0742 100.527 12.5508 100.652C12.332 100.723 12.1914 100.789 12.1289 100.852C12.0586 100.906 12.0234 101 12.0234 101.133C12.0234 101.422 11.9531 101.645 11.8125 101.801C11.6719 101.957 11.4688 102.035 11.2031 102.035C11.0938 102.035 11.0234 102.027 10.9922 102.012L10.7578 101.988C10.4766 101.949 10.2734 101.875 10.1484 101.766C10.0234 101.648 9.96094 101.469 9.96094 101.227V101.051C9.96094 100.723 9.80859 100.492 9.50391 100.359C8.96484 100.117 8.47266 99.8086 8.02734 99.4336C7.58203 99.0586 7.20313 98.6367 6.89063 98.168C6.57031 97.6992 6.32422 97.1992 6.15234 96.668C5.97266 96.1289 5.88281 95.582 5.88281 95.0273C5.88281 94.4492 5.96875 93.9102 6.14063 93.4102C6.30469 92.9023 6.53516 92.4609 6.83203 92.0859C7.12891 91.7109 7.47656 91.418 7.875 91.207C8.27344 90.9883 8.70313 90.8789 9.16406 90.8789C9.48438 90.8789 9.77734 90.9414 10.043 91.0664C10.3086 91.1914 10.543 91.3711 10.7461 91.6055C10.9414 91.8398 11.1016 92.125 11.2266 92.4609C11.3516 92.7891 11.4336 93.1641 11.4727 93.5859L11.8828 97.6523C11.8828 97.8086 11.9219 97.9375 12 98.0391C12.0781 98.1328 12.1836 98.1797 12.3164 98.1797C12.5195 98.1797 12.7148 98.1055 12.9023 97.957C13.0898 97.8008 13.2578 97.5977 13.4063 97.3477C13.5469 97.0898 13.6602 96.7969 13.7461 96.4688C13.832 96.1328 13.875 95.7891 13.875 95.4375C13.875 95.1016 13.8438 94.7578 13.7813 94.4062C13.7109 94.0469 13.6133 93.6953 13.4883 93.3516C13.3633 93 13.2148 92.6602 13.043 92.332C12.8633 92.0039 12.6602 91.6953 12.4336 91.4062ZM9.41016 94.0195C9.38672 93.9023 9.33203 93.8008 9.24609 93.7148C9.15234 93.6289 9.03906 93.5859 8.90625 93.5859C8.78906 93.5859 8.67969 93.6289 8.57813 93.7148C8.47656 93.8008 8.38672 93.918 8.30859 94.0664C8.22266 94.2148 8.15625 94.3867 8.10938 94.582C8.0625 94.7773 8.03906 94.9844 8.03906 95.2031C8.03906 95.5234 8.08594 95.8516 8.17969 96.1875C8.27344 96.5234 8.39844 96.8281 8.55469 97.1016C8.70313 97.375 8.87109 97.5977 9.05859 97.7695C9.23828 97.9414 9.41797 98.0273 9.59766 98.0273C9.77734 98.0273 9.86719 97.918 9.86719 97.6992C9.86719 97.5664 9.85156 97.3516 9.82031 97.0547C9.78906 96.7578 9.75391 96.4297 9.71484 96.0703C9.66797 95.7109 9.61719 95.3477 9.5625 94.9805C9.50781 94.6133 9.45703 94.293 9.41016 94.0195ZM1.65234 89.6133C1.24609 89.6133 0.957031 89.4961 0.785156 89.2617C0.613281 89.0273 0.527344 88.6406 0.527344 88.1016C0.527344 87.9141 0.546875 87.75 0.585938 87.6094C0.625 87.4688 0.691406 87.3516 0.785156 87.2578C0.871094 87.1641 0.992188 87.0898 1.14844 87.0352C1.29688 86.9727 1.48828 86.9219 1.72266 86.8828C2.41797 86.7812 3.14844 86.6797 3.91406 86.5781C4.67188 86.4688 5.42969 86.3672 6.1875 86.2734C6.9375 86.1719 7.67188 86.0781 8.39063 85.9922C9.10156 85.9062 9.76563 85.832 10.3828 85.7695C10.9922 85.6992 11.5352 85.6484 12.0117 85.6172C12.4805 85.5781 12.8516 85.5586 13.125 85.5586C13.4063 85.5586 13.6445 85.5859 13.8398 85.6406C14.0352 85.6875 14.1914 85.7734 14.3086 85.8984C14.4258 86.0156 14.5117 86.1719 14.5664 86.3672C14.6133 86.5547 14.6367 86.7891 14.6367 87.0703C14.6367 87.3438 14.5664 87.5625 14.4258 87.7266C14.2852 87.8828 14.0703 87.9609 13.7813 87.9609C13.4844 87.9609 13.0898 87.9844 12.5977 88.0312C12.0977 88.0781 11.543 88.1406 10.9336 88.2188C10.3242 88.2969 9.67578 88.3867 8.98828 88.4883C8.30078 88.582 7.62109 88.6836 6.94922 88.793C6.27734 88.8945 5.63281 88.9961 5.01563 89.0977C4.39063 89.1914 3.83984 89.2773 3.36328 89.3555C2.87891 89.4336 2.48438 89.4961 2.17969 89.543C1.86719 89.5898 1.69141 89.6133 1.65234 89.6133ZM3.04688 81.9258C3.04688 82.1523 3.01563 82.3672 2.95313 82.5703C2.88281 82.7656 2.78906 82.9375 2.67188 83.0859C2.54688 83.2266 2.40234 83.3398 2.23828 83.4258C2.07422 83.5117 1.89453 83.5547 1.69922 83.5547C1.37109 83.5547 1.10547 83.4258 0.902344 83.168C0.699219 82.9023 0.597656 82.5508 0.597656 82.1133C0.597656 81.9102 0.636719 81.7148 0.714844 81.5273C0.785156 81.3398 0.882813 81.1758 1.00781 81.0352C1.13281 80.8867 1.28125 80.7695 1.45313 80.6836C1.61719 80.5977 1.78906 80.5547 1.96875 80.5547C2.30469 80.5547 2.57031 80.6797 2.76563 80.9297C2.95313 81.1719 3.04688 81.5039 3.04688 81.9258ZM6.62109 83.5312C6.34766 83.5312 6.125 83.4141 5.95313 83.1797C5.77344 82.9375 5.68359 82.6211 5.68359 82.2305C5.68359 81.5273 5.92578 81.1523 6.41016 81.1055C6.74609 81.0742 7.125 81.043 7.54688 81.0117C7.96875 80.9727 8.41797 80.9375 8.89453 80.9062C9.36328 80.8672 9.85156 80.8359 10.3594 80.8125C10.8594 80.7812 11.3555 80.7539 11.8477 80.7305C12.332 80.707 12.8008 80.6875 13.2539 80.6719C13.707 80.6562 14.1211 80.6484 14.4961 80.6484C14.8867 80.6484 15.1797 80.7891 15.375 81.0703C15.5703 81.3438 15.668 81.7461 15.668 82.2773C15.668 82.5195 15.6094 82.7109 15.4922 82.8516C15.3828 82.9844 15.2188 83.0508 15 83.0508C13.9219 83.0508 12.9141 83.0781 11.9766 83.1328C11.0313 83.1797 10.1914 83.2344 9.45703 83.2969C8.72266 83.3516 8.11328 83.4062 7.62891 83.4609C7.13672 83.5078 6.80078 83.5312 6.62109 83.5312ZM5.95313 72.2109C5.73438 72.1875 5.55469 72.1602 5.41406 72.1289C5.26563 72.0898 5.14844 72.0352 5.0625 71.9648C4.96875 71.8867 4.90234 71.7891 4.86328 71.6719C4.82422 71.5547 4.80469 71.4062 4.80469 71.2266C4.80469 70.6562 4.89063 70.2383 5.0625 69.9727C5.22656 69.6992 5.49219 69.5625 5.85938 69.5625C5.92969 69.5625 6.08594 69.5781 6.32813 69.6094C6.5625 69.6328 6.85547 69.668 7.20703 69.7148C7.55078 69.7617 7.93359 69.8164 8.35547 69.8789C8.76953 69.9336 9.19141 69.9883 9.62109 70.043C10.6211 70.1836 11.7422 70.3438 12.9844 70.5234C13.7188 70.6328 14.2461 70.8516 14.5664 71.1797C14.8867 71.5 15.0469 71.9766 15.0469 72.6094C15.0469 73.0859 14.9258 73.5781 14.6836 74.0859C14.4414 74.5938 14.1133 75.0859 13.6992 75.5625C13.2852 76.0391 12.8047 76.4922 12.2578 76.9219C11.7031 77.3438 11.1172 77.7148 10.5 78.0352C9.875 78.3555 9.23828 78.6094 8.58984 78.7969C7.94141 78.9766 7.30859 79.0664 6.69141 79.0664C5.99609 79.0664 5.47656 78.9688 5.13281 78.7734C4.78125 78.5703 4.60547 78.2227 4.60547 77.7305C4.60547 77.3867 4.62891 77.1016 4.67578 76.875C4.71484 76.6484 4.78906 76.4688 4.89844 76.3359C5 76.1953 5.13672 76.0977 5.30859 76.043C5.48047 75.9805 5.69531 75.9492 5.95313 75.9492C6.125 75.9492 6.29688 75.957 6.46875 75.9727C6.64063 75.9883 6.8125 75.9961 6.98438 75.9961C7.38281 75.9961 7.80078 75.957 8.23828 75.8789C8.66797 75.793 9.08984 75.6797 9.50391 75.5391C9.91797 75.3984 10.3125 75.2344 10.6875 75.0469C11.0547 74.8594 11.3789 74.6602 11.6602 74.4492C11.9414 74.2383 12.1641 74.0273 12.3281 73.8164C12.4922 73.5977 12.5742 73.3867 12.5742 73.1836C12.5742 73.043 12.5273 72.9375 12.4336 72.8672C12.3398 72.7891 12.1797 72.7383 11.9531 72.7148L5.95313 72.2109ZM12.4336 57.9141C12.2383 57.6875 12.1406 57.4648 12.1406 57.2461C12.1406 57.1211 12.1719 57.0078 12.2344 56.9062C12.2969 56.8047 12.3945 56.6914 12.5273 56.5664C12.707 56.4492 12.8555 56.3672 12.9727 56.3203C13.082 56.2656 13.1914 56.2383 13.3008 56.2383C13.5352 56.2383 13.7578 56.3555 13.9688 56.5898C14.2813 56.9648 14.5625 57.3711 14.8125 57.8086C15.0547 58.2461 15.2617 58.7031 15.4336 59.1797C15.6055 59.6562 15.7344 60.1484 15.8203 60.6562C15.9141 61.1641 15.9609 61.668 15.9609 62.168C15.9609 62.8008 15.8789 63.3945 15.7148 63.9492C15.5586 64.5039 15.332 65 15.0352 65.4375C14.7383 65.8672 14.3828 66.2305 13.9688 66.5273C13.5469 66.8242 13.0742 67.0352 12.5508 67.1602C12.332 67.2305 12.1914 67.2969 12.1289 67.3594C12.0586 67.4141 12.0234 67.5078 12.0234 67.6406C12.0234 67.9297 11.9531 68.1523 11.8125 68.3086C11.6719 68.4648 11.4688 68.543 11.2031 68.543C11.0938 68.543 11.0234 68.5352 10.9922 68.5195L10.7578 68.4961C10.4766 68.457 10.2734 68.3828 10.1484 68.2734C10.0234 68.1562 9.96094 67.9766 9.96094 67.7344V67.5586C9.96094 67.2305 9.80859 67 9.50391 66.8672C8.96484 66.625 8.47266 66.3164 8.02734 65.9414C7.58203 65.5664 7.20313 65.1445 6.89063 64.6758C6.57031 64.207 6.32422 63.707 6.15234 63.1758C5.97266 62.6367 5.88281 62.0898 5.88281 61.5352C5.88281 60.957 5.96875 60.418 6.14063 59.918C6.30469 59.4102 6.53516 58.9688 6.83203 58.5938C7.12891 58.2188 7.47656 57.9258 7.875 57.7148C8.27344 57.4961 8.70313 57.3867 9.16406 57.3867C9.48438 57.3867 9.77734 57.4492 10.043 57.5742C10.3086 57.6992 10.543 57.8789 10.7461 58.1133C10.9414 58.3477 11.1016 58.6328 11.2266 58.9688C11.3516 59.2969 11.4336 59.6719 11.4727 60.0938L11.8828 64.1602C11.8828 64.3164 11.9219 64.4453 12 64.5469C12.0781 64.6406 12.1836 64.6875 12.3164 64.6875C12.5195 64.6875 12.7148 64.6133 12.9023 64.4648C13.0898 64.3086 13.2578 64.1055 13.4063 63.8555C13.5469 63.5977 13.6602 63.3047 13.7461 62.9766C13.832 62.6406 13.875 62.2969 13.875 61.9453C13.875 61.6094 13.8438 61.2656 13.7813 60.9141C13.7109 60.5547 13.6133 60.2031 13.4883 59.8594C13.3633 59.5078 13.2148 59.168 13.043 58.8398C12.8633 58.5117 12.6602 58.2031 12.4336 57.9141ZM9.41016 60.5273C9.38672 60.4102 9.33203 60.3086 9.24609 60.2227C9.15234 60.1367 9.03906 60.0938 8.90625 60.0938C8.78906 60.0938 8.67969 60.1367 8.57813 60.2227C8.47656 60.3086 8.38672 60.4258 8.30859 60.5742C8.22266 60.7227 8.15625 60.8945 8.10938 61.0898C8.0625 61.2852 8.03906 61.4922 8.03906 61.7109C8.03906 62.0312 8.08594 62.3594 8.17969 62.6953C8.27344 63.0312 8.39844 63.3359 8.55469 63.6094C8.70313 63.8828 8.87109 64.1055 9.05859 64.2773C9.23828 64.4492 9.41797 64.5352 9.59766 64.5352C9.77734 64.5352 9.86719 64.4258 9.86719 64.207C9.86719 64.0742 9.85156 63.8594 9.82031 63.5625C9.78906 63.2656 9.75391 62.9375 9.71484 62.5781C9.66797 62.2188 9.61719 61.8555 9.5625 61.4883C9.50781 61.1211 9.45703 60.8008 9.41016 60.5273ZM6.23438 49.1367C6.23438 49.4258 6.3125 49.6797 6.46875 49.8984C6.61719 50.1172 6.82813 50.3047 7.10156 50.4609C7.36719 50.6172 7.68359 50.7461 8.05078 50.8477C8.41016 50.9492 8.80469 51.0312 9.23438 51.0938C9.66406 51.1562 10.1133 51.1992 10.582 51.2227C11.0508 51.2461 11.5234 51.2578 12 51.2578C12.625 51.2578 13.2422 51.2344 13.8516 51.1875C14.4531 51.1328 15.0117 51.1055 15.5273 51.1055C15.8633 51.1055 16.125 51.2305 16.3125 51.4805C16.5078 51.7305 16.6055 52.0859 16.6055 52.5469C16.6055 52.6328 16.5977 52.7305 16.582 52.8398C16.5664 52.9492 16.5352 53.0547 16.4883 53.1562C16.4414 53.25 16.375 53.3359 16.2891 53.4141C16.2109 53.4844 16.1016 53.5234 15.9609 53.5312C15.2734 53.6016 14.5703 53.7031 13.8516 53.8359C13.1328 53.9688 12.418 54.1367 11.707 54.3398C10.9883 54.5352 10.2773 54.7734 9.57422 55.0547C8.87109 55.3281 8.18359 55.6445 7.51172 56.0039C7.39453 56.0664 7.28516 56.1211 7.18359 56.168C7.08203 56.207 6.98438 56.2266 6.89063 56.2266C6.77344 56.2266 6.64844 56.1758 6.51563 56.0742C6.375 55.9648 6.24609 55.832 6.12891 55.6758C6.01172 55.5117 5.91797 55.3359 5.84766 55.1484C5.76953 54.9531 5.73047 54.7656 5.73047 54.5859C5.73047 54.2891 5.9375 54.0273 6.35156 53.8008C6.75781 53.5742 7.41016 53.3633 8.30859 53.168C8.46484 53.1289 8.57422 53.0977 8.63672 53.0742C8.69922 53.0508 8.73047 53.0195 8.73047 52.9805C8.73047 52.8945 8.59766 52.8398 8.33203 52.8164C7.58984 52.7227 6.95313 52.5625 6.42188 52.3359C5.88281 52.1094 5.44141 51.8281 5.09766 51.4922C4.74609 51.1484 4.48828 50.7578 4.32422 50.3203C4.16016 49.875 4.07813 49.3867 4.07813 48.8555C4.07813 48.5508 4.10547 48.2422 4.16016 47.9297C4.21484 47.6172 4.29688 47.3359 4.40625 47.0859C4.51563 46.8359 4.64844 46.6328 4.80469 46.4766C4.96094 46.3203 5.13672 46.2422 5.33203 46.2422C5.47266 46.2422 5.64063 46.2734 5.83594 46.3359C6.02344 46.3906 6.20703 46.4648 6.38672 46.5586C6.55859 46.6523 6.70703 46.7617 6.83203 46.8867C6.94922 47.0039 7.00781 47.125 7.00781 47.25C7.00781 47.3906 6.96875 47.5273 6.89063 47.6602C6.80469 47.793 6.71484 47.9375 6.62109 48.0938C6.52734 48.2422 6.44141 48.4023 6.36328 48.5742C6.27734 48.7383 6.23438 48.9258 6.23438 49.1367ZM15.3164 42.0938C15.3164 42.5625 15.2031 43.0312 14.9766 43.5C14.7422 43.9688 14.4258 44.418 14.0273 44.8477C13.6289 45.2773 13.1602 45.6758 12.6211 46.043C12.0742 46.4102 11.4883 46.7305 10.8633 47.0039C10.2305 47.2773 9.57031 47.4922 8.88281 47.6484C8.19531 47.8047 7.50781 47.8828 6.82031 47.8828C6.28906 47.8828 5.91016 47.7734 5.68359 47.5547C5.44922 47.3359 5.33203 46.9805 5.33203 46.4883C5.33203 45.8711 5.58594 45.5273 6.09375 45.457C7.17188 45.3164 8.14453 45.1211 9.01172 44.8711C9.87891 44.6211 10.6172 44.3281 11.2266 43.9922C11.8359 43.6484 12.3047 43.2695 12.6328 42.8555C12.9609 42.4336 13.125 41.9883 13.125 41.5195C13.125 41.1836 13.043 40.8672 12.8789 40.5703C12.707 40.2734 12.4688 40.0156 12.1641 39.7969C12.0469 39.7188 11.9336 39.668 11.8242 39.6445C11.7148 39.6133 11.5898 39.5898 11.4492 39.5742C10.8945 39.5352 10.3516 39.4922 9.82031 39.4453C9.28125 39.3906 8.74219 39.3398 8.20313 39.293C7.96875 39.2773 7.77734 39.2461 7.62891 39.1992C7.48047 39.1523 7.36328 39.082 7.27734 38.9883C7.19141 38.8945 7.13281 38.7734 7.10156 38.625C7.07031 38.4688 7.05469 38.2734 7.05469 38.0391C7.05469 37.7734 7.09375 37.5469 7.17188 37.3594C7.24219 37.1719 7.36328 37.0195 7.53516 36.9023C7.69922 36.7852 7.91797 36.7031 8.19141 36.6562C8.45703 36.6016 8.78906 36.5742 9.1875 36.5742C9.53125 36.5742 9.83203 36.6016 10.0898 36.6562C10.3398 36.7031 10.5781 36.7617 10.8047 36.832C11.0234 36.8945 11.2422 36.957 11.4609 37.0195C11.6719 37.0742 11.9063 37.1094 12.1641 37.125C12.8125 37.1641 13.375 37.1992 13.8516 37.2305C14.3203 37.2617 14.7227 37.2891 15.0586 37.3125C15.3945 37.3281 15.6836 37.3438 15.9258 37.3594C16.168 37.3672 16.3828 37.375 16.5703 37.3828C16.7656 37.3906 16.9492 37.3945 17.1211 37.3945C17.293 37.3945 17.4805 37.3945 17.6836 37.3945C18.0508 37.3945 18.4492 37.3789 18.8789 37.3477C19.3164 37.3164 19.7344 37.2852 20.1328 37.2539C20.5313 37.2148 20.8828 37.1797 21.1875 37.1484C21.4922 37.1172 21.7031 37.1016 21.8203 37.1016C21.9688 37.1016 22.1094 37.1484 22.2422 37.2422C22.375 37.3359 22.4922 37.4609 22.5938 37.6172C22.6953 37.7734 22.7734 37.957 22.8281 38.168C22.8906 38.3789 22.9219 38.6016 22.9219 38.8359C22.9219 39.0391 22.8516 39.2031 22.7109 39.3281C22.5781 39.4453 22.3984 39.5117 22.1719 39.5273C21.875 39.5508 21.5117 39.5703 21.082 39.5859C20.6602 39.6016 20.207 39.6172 19.7227 39.6328C19.2461 39.6484 18.7578 39.6602 18.2578 39.668C17.7656 39.668 17.3047 39.6719 16.875 39.6797C16.4531 39.6875 16.082 39.6914 15.7617 39.6914C15.4414 39.6914 15.2109 39.6914 15.0703 39.6914C14.9297 39.6914 14.832 39.707 14.7773 39.7383C14.7148 39.7695 14.6836 39.8281 14.6836 39.9141C14.6836 39.9609 14.6992 40.0234 14.7305 40.1016C14.7539 40.1797 14.7969 40.2695 14.8594 40.3711C15.0234 40.6445 15.1406 40.9219 15.2109 41.2031C15.2813 41.4844 15.3164 41.7812 15.3164 42.0938ZM6.43359 27.3281C6.44922 27.2969 6.45703 27.25 6.45703 27.1875C6.45703 27.0156 6.34375 26.9297 6.11719 26.9297H2.47266C2.01172 26.9297 1.68359 26.8281 1.48828 26.625C1.29297 26.4141 1.19531 26.0664 1.19531 25.582C1.19531 25.0898 1.29688 24.7422 1.5 24.5391C1.70313 24.3359 2.05078 24.2344 2.54297 24.2344C2.73047 24.2344 3.00781 24.2461 3.375 24.2695C3.73438 24.293 4.14453 24.3203 4.60547 24.3516C5.06641 24.375 5.5625 24.3984 6.09375 24.4219C6.61719 24.4453 7.13672 24.457 7.65234 24.457C8.44922 24.457 9.13672 24.4023 9.71484 24.293C10.293 24.1836 10.7734 24.0273 11.1563 23.8242C11.5313 23.6211 11.8125 23.3789 12 23.0977C12.1797 22.8164 12.2695 22.5 12.2695 22.1484C12.2695 21.9531 12.2461 21.7773 12.1992 21.6211C12.1445 21.457 12.1172 21.2656 12.1172 21.0469C12.1172 20.8906 12.1992 20.7617 12.3633 20.6602C12.5195 20.5508 12.7109 20.4961 12.9375 20.4961C13.1406 20.4961 13.332 20.5586 13.5117 20.6836C13.6914 20.8008 13.8477 20.9648 13.9805 21.1758C14.1133 21.3789 14.2188 21.6172 14.2969 21.8906C14.3672 22.1641 14.4023 22.4492 14.4023 22.7461C14.4023 23.3867 14.207 23.9727 13.8164 24.5039C13.418 25.0352 12.8125 25.4336 12 25.6992C11.875 25.7227 11.8125 25.7617 11.8125 25.8164C11.8125 25.8789 11.875 25.9297 12 25.9688C12.5703 26.1797 13.0859 26.457 13.5469 26.8008C14 27.1367 14.3906 27.5312 14.7188 27.9844C15.0391 28.4297 15.2852 28.9219 15.457 29.4609C15.6289 29.9922 15.7148 30.5547 15.7148 31.1484C15.7148 31.7734 15.6094 32.3477 15.3984 32.8711C15.1953 33.3867 14.9102 33.832 14.543 34.207C14.168 34.582 13.7305 34.875 13.2305 35.0859C12.7227 35.2969 12.1758 35.4023 11.5898 35.4023C10.8398 35.4023 10.1328 35.2461 9.46875 34.9336C8.80469 34.6211 8.22656 34.1992 7.73438 33.668C7.23438 33.1289 6.83984 32.5039 6.55078 31.793C6.26172 31.082 6.11719 30.3242 6.11719 29.5195C6.11719 29.1914 6.14453 28.8438 6.19922 28.4766C6.24609 28.1094 6.32422 27.7266 6.43359 27.3281ZM13.6055 30.6914C13.6055 30.2461 13.5078 29.8516 13.3125 29.5078C13.1172 29.1562 12.8711 28.8477 12.5742 28.582C12.2695 28.3086 11.9375 28.0781 11.5781 27.8906C11.2109 27.7031 10.8555 27.5508 10.5117 27.4336C10.168 27.3164 9.85938 27.2305 9.58594 27.1758C9.3125 27.1211 9.11719 27.0938 9 27.0938C8.91406 27.0938 8.83984 27.1172 8.77734 27.1641C8.70703 27.2109 8.65234 27.2812 8.61328 27.375C8.55859 27.5859 8.51172 27.8047 8.47266 28.0312C8.42578 28.2578 8.38672 28.4805 8.35547 28.6992C8.32422 28.918 8.30078 29.1289 8.28516 29.332C8.26953 29.5273 8.26172 29.707 8.26172 29.8711C8.26172 30.3398 8.33203 30.7656 8.47266 31.1484C8.61328 31.5312 8.8125 31.8594 9.07031 32.1328C9.32813 32.3984 9.63672 32.6055 9.99609 32.7539C10.3477 32.9023 10.7344 32.9766 11.1563 32.9766C11.5313 32.9766 11.8711 32.9219 12.1758 32.8125C12.4727 32.6953 12.7266 32.5391 12.9375 32.3438C13.1484 32.1406 13.3125 31.8984 13.4297 31.6172C13.5469 31.3359 13.6055 31.0273 13.6055 30.6914ZM12.4336 11.1328C12.2383 10.9062 12.1406 10.6836 12.1406 10.4648C12.1406 10.3398 12.1719 10.2266 12.2344 10.125C12.2969 10.0234 12.3945 9.91016 12.5273 9.78516C12.707 9.66797 12.8555 9.58594 12.9727 9.53906C13.082 9.48438 13.1914 9.45703 13.3008 9.45703C13.5352 9.45703 13.7578 9.57422 13.9688 9.80859C14.2813 10.1836 14.5625 10.5898 14.8125 11.0273C15.0547 11.4648 15.2617 11.9219 15.4336 12.3984C15.6055 12.875 15.7344 13.3672 15.8203 13.875C15.9141 14.3828 15.9609 14.8867 15.9609 15.3867C15.9609 16.0195 15.8789 16.6133 15.7148 17.168C15.5586 17.7227 15.332 18.2188 15.0352 18.6562C14.7383 19.0859 14.3828 19.4492 13.9688 19.7461C13.5469 20.043 13.0742 20.2539 12.5508 20.3789C12.332 20.4492 12.1914 20.5156 12.1289 20.5781C12.0586 20.6328 12.0234 20.7266 12.0234 20.8594C12.0234 21.1484 11.9531 21.3711 11.8125 21.5273C11.6719 21.6836 11.4688 21.7617 11.2031 21.7617C11.0938 21.7617 11.0234 21.7539 10.9922 21.7383L10.7578 21.7148C10.4766 21.6758 10.2734 21.6016 10.1484 21.4922C10.0234 21.375 9.96094 21.1953 9.96094 20.9531V20.7773C9.96094 20.4492 9.80859 20.2188 9.50391 20.0859C8.96484 19.8438 8.47266 19.5352 8.02734 19.1602C7.58203 18.7852 7.20313 18.3633 6.89063 17.8945C6.57031 17.4258 6.32422 16.9258 6.15234 16.3945C5.97266 15.8555 5.88281 15.3086 5.88281 14.7539C5.88281 14.1758 5.96875 13.6367 6.14063 13.1367C6.30469 12.6289 6.53516 12.1875 6.83203 11.8125C7.12891 11.4375 7.47656 11.1445 7.875 10.9336C8.27344 10.7148 8.70313 10.6055 9.16406 10.6055C9.48438 10.6055 9.77734 10.668 10.043 10.793C10.3086 10.918 10.543 11.0977 10.7461 11.332C10.9414 11.5664 11.1016 11.8516 11.2266 12.1875C11.3516 12.5156 11.4336 12.8906 11.4727 13.3125L11.8828 17.3789C11.8828 17.5352 11.9219 17.6641 12 17.7656C12.0781 17.8594 12.1836 17.9062 12.3164 17.9062C12.5195 17.9062 12.7148 17.832 12.9023 17.6836C13.0898 17.5273 13.2578 17.3242 13.4063 17.0742C13.5469 16.8164 13.6602 16.5234 13.7461 16.1953C13.832 15.8594 13.875 15.5156 13.875 15.1641C13.875 14.8281 13.8438 14.4844 13.7813 14.1328C13.7109 13.7734 13.6133 13.4219 13.4883 13.0781C13.3633 12.7266 13.2148 12.3867 13.043 12.0586C12.8633 11.7305 12.6602 11.4219 12.4336 11.1328ZM9.41016 13.7461C9.38672 13.6289 9.33203 13.5273 9.24609 13.4414C9.15234 13.3555 9.03906 13.3125 8.90625 13.3125C8.78906 13.3125 8.67969 13.3555 8.57813 13.4414C8.47656 13.5273 8.38672 13.6445 8.30859 13.793C8.22266 13.9414 8.15625 14.1133 8.10938 14.3086C8.0625 14.5039 8.03906 14.7109 8.03906 14.9297C8.03906 15.25 8.08594 15.5781 8.17969 15.9141C8.27344 16.25 8.39844 16.5547 8.55469 16.8281C8.70313 17.1016 8.87109 17.3242 9.05859 17.4961C9.23828 17.668 9.41797 17.7539 9.59766 17.7539C9.77734 17.7539 9.86719 17.6445 9.86719 17.4258C9.86719 17.293 9.85156 17.0781 9.82031 16.7812C9.78906 16.4844 9.75391 16.1562 9.71484 15.7969C9.66797 15.4375 9.61719 15.0742 9.5625 14.707C9.50781 14.3398 9.45703 14.0195 9.41016 13.7461ZM1.65234 9.33984C1.24609 9.33984 0.957031 9.22266 0.785156 8.98828C0.613281 8.75391 0.527344 8.36719 0.527344 7.82812C0.527344 7.64062 0.546875 7.47656 0.585938 7.33594C0.625 7.19531 0.691406 7.07812 0.785156 6.98438C0.871094 6.89062 0.992188 6.81641 1.14844 6.76172C1.29688 6.69922 1.48828 6.64844 1.72266 6.60938C2.41797 6.50781 3.14844 6.40625 3.91406 6.30469C4.67188 6.19531 5.42969 6.09375 6.1875 6C6.9375 5.89844 7.67188 5.80469 8.39063 5.71875C9.10156 5.63281 9.76563 5.55859 10.3828 5.49609C10.9922 5.42578 11.5352 5.375 12.0117 5.34375C12.4805 5.30469 12.8516 5.28516 13.125 5.28516C13.4063 5.28516 13.6445 5.3125 13.8398 5.36719C14.0352 5.41406 14.1914 5.5 14.3086 5.625C14.4258 5.74219 14.5117 5.89844 14.5664 6.09375C14.6133 6.28125 14.6367 6.51562 14.6367 6.79688C14.6367 7.07031 14.5664 7.28906 14.4258 7.45312C14.2852 7.60938 14.0703 7.6875 13.7813 7.6875C13.4844 7.6875 13.0898 7.71094 12.5977 7.75781C12.0977 7.80469 11.543 7.86719 10.9336 7.94531C10.3242 8.02344 9.67578 8.11328 8.98828 8.21484C8.30078 8.30859 7.62109 8.41016 6.94922 8.51953C6.27734 8.62109 5.63281 8.72266 5.01563 8.82422C4.39063 8.91797 3.83984 9.00391 3.36328 9.08203C2.87891 9.16016 2.48438 9.22266 2.17969 9.26953C1.86719 9.31641 1.69141 9.33984 1.65234 9.33984ZM3.04688 1.65234C3.04688 1.87891 3.01563 2.09375 2.95313 2.29688C2.88281 2.49219 2.78906 2.66406 2.67188 2.8125C2.54688 2.95312 2.40234 3.06641 2.23828 3.15234C2.07422 3.23828 1.89453 3.28125 1.69922 3.28125C1.37109 3.28125 1.10547 3.15234 0.902344 2.89453C0.699219 2.62891 0.597656 2.27734 0.597656 1.83984C0.597656 1.63672 0.636719 1.44141 0.714844 1.25391C0.785156 1.06641 0.882813 0.902344 1.00781 0.761719C1.13281 0.613281 1.28125 0.496094 1.45313 0.410156C1.61719 0.324219 1.78906 0.28125 1.96875 0.28125C2.30469 0.28125 2.57031 0.40625 2.76563 0.65625C2.95313 0.898438 3.04688 1.23047 3.04688 1.65234ZM6.62109 3.25781C6.34766 3.25781 6.125 3.14062 5.95313 2.90625C5.77344 2.66406 5.68359 2.34766 5.68359 1.95703C5.68359 1.25391 5.92578 0.878906 6.41016 0.832031C6.74609 0.800781 7.125 0.769531 7.54688 0.738281C7.96875 0.699219 8.41797 0.664062 8.89453 0.632812C9.36328 0.59375 9.85156 0.5625 10.3594 0.539062C10.8594 0.507812 11.3555 0.480469 11.8477 0.457031C12.332 0.433594 12.8008 0.414062 13.2539 0.398438C13.707 0.382812 14.1211 0.375 14.4961 0.375C14.8867 0.375 15.1797 0.515625 15.375 0.796875C15.5703 1.07031 15.668 1.47266 15.668 2.00391C15.668 2.24609 15.6094 2.4375 15.4922 2.57812C15.3828 2.71094 15.2188 2.77734 15 2.77734C13.9219 2.77734 12.9141 2.80469 11.9766 2.85938C11.0313 2.90625 10.1914 2.96094 9.45703 3.02344C8.72266 3.07812 8.11328 3.13281 7.62891 3.1875C7.13672 3.23438 6.80078 3.25781 6.62109 3.25781Z" fill="#CDE24C"/>
</svg>
